<?xml version="1.0" encoding="UTF-8"?>
<svg width="24" height="24" version="1.1" xmlns="http://www.w3.org/2000/svg">
 <defs>
  <clipPath id="clipPath948">
   <circle cx="12" cy="12" r="11" d="M 23,12 A 11,11 0 0 1 12,23 11,11 0 0 1 1,12 11,11 0 0 1 12,1 11,11 0 0 1 23,12 Z" display="none" fill="#fff" opacity=".1" stroke-width="0"/>
   <path class="powerclip" d="m-5-5h34v34h-34zm28 17a11 11 0 0 0-11-11 11 11 0 0 0-11 11 11 11 0 0 0 11 11 11 11 0 0 0 11-11z" fill="#fff" opacity=".1" stroke-width="0"/>
  </clipPath>
 </defs>
 <g fill="#000" opacity="0.8" stroke-width="0">
  <circle cx="12" cy="12" r="12" opacity=".1"/>
  <path d="m24 12a12 12 0 0 1-12 12 12 12 0 0 1-12-12 12 12 0 0 1 12-12 12 12 0 0 1 12 12z" clip-path="url(#clipPath948)" opacity=".05"/>
  <g transform="matrix(3.7795 0 0 3.7795 -7.4511e-5 -1100)">
   <path d="m2.1167 293.69v1.5875h1.5875v-1.5874zm0.26458 0.26459h1.0583v1.0583h-1.0583z" stroke-width=".15276"/>
   <g id="right-edge" transform="matrix(1 0 0 .99532 -3.8027e-6 2.6959)">
    <g transform="matrix(-.70711 -.35522 .70711 -.35522 -202.55 398.13)">
     <rect transform="rotate(-45)" x="-206.78" y="208.42" width=".26458" height="2.6458" opacity=".5" stroke-width=".19721"/>
    </g>
   </g>
   <g id="top-edge" transform="matrix(.42427 -.70711 .42427 .70711 -122.56 86.509)">
    <rect transform="rotate(-45)" x="-206.92" y="208.67" width=".26458" height="2.6458" opacity=".5" stroke-width=".19721"/>
   </g>
  </g>
 </g>
</svg>
