<?xml version="1.0" encoding="UTF-8"?>
<svg width="16" height="16" version="1.1" xmlns="http://www.w3.org/2000/svg">
 <defs>
  <clipPath id="clipath_lpe_path-effect1791-5-7-6">
   <circle cx="135" cy="104" r="22.677" display="none"/>
   <path class="powerclip" d="m103.54 72.543h62.913v62.913h-62.913zm54.134 31.457a22.677 22.677 0 0 0-22.677-22.677 22.677 22.677 0 0 0-22.677 22.677 22.677 22.677 0 0 0 22.677 22.677 22.677 22.677 0 0 0 22.677-22.677z"/>
  </clipPath>
 </defs>
 <g transform="matrix(3.7795 0 0 3.7795 -322 -580.58)">
  <g transform="matrix(.34018 0 0 .34018 84.931 153.33)" enable-background="new">
   <g transform="translate(-5,-1033.4)">
    <g fill-rule="evenodd" stroke-width=".77778">
     <path d="m12.003 1045.9c3.0068 0 5.4444-2.4375 5.4444-5.4444s-2.4376-5.4445-5.4444-5.4445c-3.0069 0-5.4445 2.4376-5.4445 5.4445s2.4376 5.4444 5.4445 5.4444" fill="#e64f46"/>
     <path d="m12.003 1045.9c3.0068 0 5.4444-2.4375 5.4444-5.4444s-2.4376-5.4445-5.4444-5.4445c-3.0069 0-5.4445 2.4376-5.4445 5.4445s2.4376 5.4444 5.4445 5.4444" fill="#fff" opacity=".3"/>
    </g>
   </g>
  </g>
  <path d="m86.565 154.98c-0.10365 0.10364-0.10365 0.27051 0 0.37417l0.37417 0.37418-0.37417 0.37417c-0.10365 0.10366-0.10365 0.27054 0 0.37417 0.10364 0.10367 0.27053 0.10367 0.37417 0l0.37418-0.37417 0.37418 0.37417c0.10364 0.10367 0.27053 0.10367 0.37417 0 0.10365-0.10363 0.10365-0.27051 0-0.37417l-0.37417-0.37417 0.37417-0.37418c0.10365-0.10366 0.10365-0.27053 0-0.37417-0.10364-0.10367-0.27053-0.10367-0.37417 0l-0.37418 0.37417-0.37418-0.37417c-0.10364-0.10367-0.27053-0.10367-0.37417 0z" enable-background="new" opacity=".5"/>
 </g>
 <path transform="matrix(.26458 0 0 .26458 -27.72 -19.517)" d="m161.46 104a26.457 26.457 0 0 1-26.457 26.457 26.457 26.457 0 0 1-26.457-26.457 26.457 26.457 0 0 1 26.457-26.457 26.457 26.457 0 0 1 26.457 26.457z" clip-path="url(#clipath_lpe_path-effect1791-5-7-6)" enable-background="new" fill="#000" opacity=".08"/>
</svg>
