<?xml version="1.0" encoding="UTF-8"?>
<svg width="16" height="16" version="1.1" xmlns="http://www.w3.org/2000/svg">
 <defs>
  <clipPath id="clipath_lpe_path-effect1791-5-7-6">
   <circle cx="135" cy="104" r="22.677" display="none"/>
   <path class="powerclip" d="m103.54 72.543h62.913v62.913h-62.913zm54.134 31.457a22.677 22.677 0 0 0-22.677-22.677 22.677 22.677 0 0 0-22.677 22.677 22.677 22.677 0 0 0 22.677 22.677 22.677 22.677 0 0 0 22.677-22.677z"/>
  </clipPath>
 </defs>
 <g transform="matrix(3.7795 0 0 3.7795 -296 -586.51)">
  <g transform="translate(-11.906,31.221)" fill-rule="evenodd" stroke-width=".77781">
   <path d="m92.34 127.93c1.0229 0 1.8521-0.82923 1.8521-1.8521 0-1.0229-0.82921-1.8521-1.8521-1.8521-1.0229 0-1.8521 0.82923-1.8521 1.8521 0 1.0229 0.82921 1.8521 1.8521 1.8521" fill="#3fcd17"/>
   <path d="m92.34 127.93c1.0229 0 1.8521-0.82923 1.8521-1.8521 0-1.0229-0.82921-1.8521-1.8521-1.8521-1.0229 0-1.8521 0.82923-1.8521 1.8521 0 1.0229 0.82921 1.8521 1.8521 1.8521" fill="#fff" opacity=".3"/>
  </g>
  <path d="m80.014 156.51 1.2134 1.2134v-0.94877c0-0.10994-0.15465-0.26458-0.26459-0.26458zm-0.37413 0.37414v0.94877c0 0.10994 0.15464 0.26459 0.26458 0.26459h0.94878z" opacity=".5"/>
 </g>
 <path transform="matrix(.26458 0 0 .26458 -27.72 -19.517)" d="m161.46 104a26.457 26.457 0 0 1-26.457 26.457 26.457 26.457 0 0 1-26.457-26.457 26.457 26.457 0 0 1 26.457-26.457 26.457 26.457 0 0 1 26.457 26.457z" clip-path="url(#clipath_lpe_path-effect1791-5-7-6)" enable-background="new" fill="#fff" opacity=".15"/>
</svg>
