<?xml version="1.0" encoding="UTF-8"?>
<svg width="24" height="24" version="1.1" xmlns="http://www.w3.org/2000/svg">
 <defs>
  <clipPath id="clipPath948">
   <circle cx="12" cy="12" r="11" d="M 23,12 A 11,11 0 0 1 12,23 11,11 0 0 1 1,12 11,11 0 0 1 12,1 11,11 0 0 1 23,12 Z" display="none" fill="#fff" opacity=".1" stroke-width="0"/>
   <path class="powerclip" d="m-5-5h34v34h-34zm28 17a11 11 0 0 0-11-11 11 11 0 0 0-11 11 11 11 0 0 0 11 11 11 11 0 0 0 11-11z" fill="#fff" opacity=".1" stroke-width="0"/>
  </clipPath>
 </defs>
 <g fill="#fff" stroke-width="0" opacity="0.5">
  <circle cx="12" cy="12" r="12" opacity=".15"/>
  <path d="m24 12a12 12 0 0 1-12 12 12 12 0 0 1-12-12 12 12 0 0 1 12-12 12 12 0 0 1 12 12z" clip-path="url(#clipPath948)" opacity=".05"/>
 </g>
 <path d="m8 8 1e-5 1 1e-5 6-2e-5 0.99998h1l6 2e-5h1l-1e-5 -1-1e-5 -7zm1 1 6-1e-5 1e-5 6-6 1e-5z" fill="#fff" opacity="0.5" stroke-width=".66668"/>
</svg>
