<?xml version="1.0" encoding="UTF-8"?>
<svg width="24" height="24" version="1.1" xmlns="http://www.w3.org/2000/svg">
 <defs>
  <clipPath id="clipath_lpe_path-effect1791-5-7-6">
   <circle cx="135" cy="104" r="22.677" d="M 157.67717,103.99991 A 22.677166,22.677166 0 0 1 135,126.67707 22.677166,22.677166 0 0 1 112.32283,103.99991 22.677166,22.677166 0 0 1 135,81.322742 22.677166,22.677166 0 0 1 157.67717,103.99991 Z" display="none"/>
   <path class="powerclip" d="m103.54 72.543h62.913v62.913h-62.913zm54.134 31.457a22.677 22.677 0 0 0-22.677-22.677 22.677 22.677 0 0 0-22.677 22.677 22.677 22.677 0 0 0 22.677 22.677 22.677 22.677 0 0 0 22.677-22.677z"/>
  </clipPath>
 </defs>
 <path d="m12 19c3.8659 0 6.9999-3.134 6.9999-7s-3.134-6.9999-6.9999-6.9999c-3.866 0-7 3.1339-7 6.9999s3.134 7 7 7" fill="#e64f46" fill-rule="evenodd"/>
 <g transform="translate(-.00011277 -1028.4)">
  <path transform="matrix(.26458 0 0 .26458 -23.719 1012.8)" d="m161.46 104a26.457 26.457 0 0 1-26.457 26.457 26.457 26.457 0 0 1-26.457-26.457 26.457 26.457 0 0 1 26.457-26.457 26.457 26.457 0 0 1 26.457 26.457z" clip-path="url(#clipath_lpe_path-effect1791-5-7-6)" enable-background="new" fill="#fff" opacity=".15"/>
 </g>
 <path d="m9.1716 9.1715c-0.39175 0.39171-0.39175 1.0224 0 1.4142l1.4142 1.4142-1.4142 1.4142c-0.39175 0.39178-0.39175 1.0225 0 1.4142 0.39171 0.39182 1.0225 0.39182 1.4142 0l1.4142-1.4142 1.4142 1.4142c0.39171 0.39182 1.0225 0.39182 1.4142 0 0.39174-0.39167 0.39174-1.0224 0-1.4142l-1.4142-1.4142 1.4142-1.4142c0.39174-0.39178 0.39174-1.0225 0-1.4142-0.39171-0.39182-1.0225-0.39182-1.4142 0l-1.4142 1.4142-1.4142-1.4142c-0.39171-0.39182-1.0225-0.39182-1.4142 0z" enable-background="new" opacity=".5" stroke-width="3.7795"/>
</svg>
