<?xml version="1.0" encoding="UTF-8"?>
<svg width="24" height="24" version="1.1" xmlns="http://www.w3.org/2000/svg">
 <defs>
  <clipPath id="clipath_lpe_path-effect1791-5-7-6">
   <circle cx="135" cy="104" r="22.677" d="M 157.67717,103.99991 A 22.677166,22.677166 0 0 1 135,126.67707 22.677166,22.677166 0 0 1 112.32283,103.99991 22.677166,22.677166 0 0 1 135,81.322742 22.677166,22.677166 0 0 1 157.67717,103.99991 Z" display="none"/>
   <path class="powerclip" d="m103.54 72.543h62.913v62.913h-62.913zm54.134 31.457a22.677 22.677 0 0 0-22.677-22.677 22.677 22.677 0 0 0-22.677 22.677 22.677 22.677 0 0 0 22.677 22.677 22.677 22.677 0 0 0 22.677-22.677z"/>
  </clipPath>
 </defs>
 <g id="titlebutton-minimize-backdrop" transform="translate(-253 268.64)">
  <rect x="253" y="-268.64" width="16" height="16" ry="1.6931e-5" opacity="0" stroke-width=".47432" style="paint-order:markers stroke fill"/>
  <g transform="translate(254,-267.64)" enable-background="new">
   <g transform="translate(-5,-1033.4)" fill-rule="evenodd">
    <path d="m16 1051.4c3.8659 0 6.9999-3.134 6.9999-7s-3.134-7-6.9999-7c-3.866 0-7.0001 3.134-7.0001 7s3.134 7 7.0001 7" fill="#fff" opacity=".3"/>
   </g>
  </g>
 </g>
 <rect x="7.9999" y="11" width="8.0001" height="2" rx=".99998" ry=".99998" opacity=".4" stroke-width="3.7795"/>
 <g transform="translate(-.00011277 -1028.4)">
  <path transform="matrix(.26458 0 0 .26458 -23.719 1012.8)" d="m161.46 104a26.457 26.457 0 0 1-26.457 26.457 26.457 26.457 0 0 1-26.457-26.457 26.457 26.457 0 0 1 26.457-26.457 26.457 26.457 0 0 1 26.457 26.457z" clip-path="url(#clipath_lpe_path-effect1791-5-7-6)" enable-background="new" fill="#fff" opacity=".05"/>
 </g>
</svg>
