<?xml version="1.0" encoding="UTF-8"?>
<svg width="24" height="24" version="1.1" xmlns="http://www.w3.org/2000/svg">
 <defs>
  <clipPath id="clipath_lpe_path-effect1791-5-7-6">
   <circle cx="135" cy="104" r="22.677" d="M 157.67717,103.99991 A 22.677166,22.677166 0 0 1 135,126.67707 22.677166,22.677166 0 0 1 112.32283,103.99991 22.677166,22.677166 0 0 1 135,81.322742 22.677166,22.677166 0 0 1 157.67717,103.99991 Z" display="none"/>
   <path class="powerclip" d="m103.54 72.543h62.913v62.913h-62.913zm54.134 31.457a22.677 22.677 0 0 0-22.677-22.677 22.677 22.677 0 0 0-22.677 22.677 22.677 22.677 0 0 0 22.677 22.677 22.677 22.677 0 0 0 22.677-22.677z"/>
  </clipPath>
 </defs>
 <g transform="matrix(3.7795 0 0 3.7795 -261 -581.52)">
  <g transform="matrix(.26465 0 0 .26465 70.643 154.92)" enable-background="new">
   <g transform="translate(-5,-1033.4)" fill-rule="evenodd" stroke-width=".77778">
    <path d="m11.003 1048.4c3.865 0 6.9982-3.1332 6.9982-6.9983s-3.1333-6.9984-6.9982-6.9984c-3.865 0-6.9983 3.1332-6.9983 6.9984 0 3.865 3.1333 6.9983 6.9983 6.9983" fill="#edb425"/>
    <path d="m11.003 1048.4c3.865 0 6.9982-3.1332 6.9982-6.9983s-3.1333-6.9984-6.9982-6.9984c-3.865 0-6.9983 3.1332-6.9983 6.9984 0 3.865 3.1333 6.9983 6.9983 6.9983" fill="#fff" opacity=".3"/>
    <g transform="matrix(1.2857 0 0 1.2857 3.5063 -293.67)">
     <path transform="matrix(.20579 0 0 .20579 -21.952 1017)" d="m161.46 104a26.457 26.457 0 0 1-26.457 26.457 26.457 26.457 0 0 1-26.457-26.457 26.457 26.457 0 0 1 26.457-26.457 26.457 26.457 0 0 1 26.457 26.457z" clip-path="url(#clipath_lpe_path-effect1791-5-7-6)" enable-background="new" fill="#fff" opacity=".1" stroke-width="1"/>
    </g>
   </g>
  </g>
  <rect x="71.173" y="156.77" width="2.1167" height=".52917" rx=".26458" ry=".26458" opacity=".5"/>
 </g>
</svg>
