<?xml version="1.0" encoding="UTF-8"?>
<svg width="24" height="24" version="1.1" xmlns="http://www.w3.org/2000/svg">
 <path d="m12 19c3.8659 0 6.9999-3.134 6.9999-7s-3.134-6.9999-6.9999-6.9999c-3.866 0-7 3.1339-7 6.9999s3.134 7 7 7" fill="#e64f46" fill-rule="evenodd"/>
 <path d="m9.1716 9.1715c-0.39175 0.39171-0.39175 1.0224 0 1.4142l1.4142 1.4142-1.4142 1.4142c-0.39175 0.39178-0.39175 1.0225 0 1.4142 0.39171 0.39182 1.0225 0.39182 1.4142 0l1.4142-1.4142 1.4142 1.4142c0.39171 0.39182 1.0225 0.39182 1.4142 0 0.39174-0.39167 0.39174-1.0224 0-1.4142l-1.4142-1.4142 1.4142-1.4142c0.39174-0.39178 0.39174-1.0225 0-1.4142-0.39171-0.39182-1.0225-0.39182-1.4142 0l-1.4142 1.4142-1.4142-1.4142c-0.39171-0.39182-1.0225-0.39182-1.4142 0z" enable-background="new" opacity=".5" stroke-width="3.7795"/>
</svg>
