<?xml version="1.0" encoding="UTF-8"?>
<svg width="24" height="24" version="1.1" xmlns="http://www.w3.org/2000/svg">
 <g transform="matrix(3.7795 0 0 3.7795 -292 -582.51)">
  <g transform="translate(-11.906,31.221)" fill-rule="evenodd" stroke-width=".77781">
   <path d="m92.34 127.93c1.0229 0 1.8521-0.82923 1.8521-1.8521 0-1.0229-0.82921-1.8521-1.8521-1.8521-1.0229 0-1.8521 0.82923-1.8521 1.8521 0 1.0229 0.82921 1.8521 1.8521 1.8521" fill="#3fcd17"/>
   <path d="m92.34 127.93c1.0229 0 1.8521-0.82923 1.8521-1.8521 0-1.0229-0.82921-1.8521-1.8521-1.8521-1.0229 0-1.8521 0.82923-1.8521 1.8521 0 1.0229 0.82921 1.8521 1.8521 1.8521" fill="#fff" opacity=".3"/>
  </g>
  <path d="m80.014 156.51 1.2134 1.2134v-0.94877c0-0.10994-0.15465-0.26458-0.26459-0.26458zm-0.37413 0.37414v0.94877c0 0.10994 0.15464 0.26459 0.26458 0.26459h0.94878z" opacity=".5"/>
 </g>
</svg>
