<?xml version="1.0" encoding="UTF-8"?>
<svg width="24" height="24" version="1.1" xmlns="http://www.w3.org/2000/svg">
 <g transform="matrix(3.7795 0 0 3.7795 -337 -464.51)" fill-rule="evenodd" stroke-width=".77781">
  <path d="m92.34 127.93c1.0229 0 1.8521-0.82923 1.8521-1.8521 0-1.0229-0.82921-1.8521-1.8521-1.8521-1.0229 0-1.8521 0.82923-1.8521 1.8521 0 1.0229 0.82921 1.8521 1.8521 1.8521" fill="#3fcd17"/>
  <path d="m92.34 127.93c1.0229 0 1.8521-0.82923 1.8521-1.8521 0-1.0229-0.82921-1.8521-1.8521-1.8521-1.0229 0-1.8521 0.82923-1.8521 1.8521 0 1.0229 0.82921 1.8521 1.8521 1.8521" fill="#fff" opacity=".3"/>
 </g>
 <path d="m12.026 7.4127v3.5859c0 0.41552 0.58448 1 1 1h3.5859zm-4.6367 4.5859 4.5859 4.5859v-3.5859c0-0.41552-0.58448-1-1-1z" opacity=".5" stroke-width="3.7795"/>
</svg>
