<?xml version="1.0" encoding="UTF-8"?>
<svg width="24" height="24" version="1.1" xmlns="http://www.w3.org/2000/svg">
 <defs>
  <clipPath id="clipath_lpe_path-effect1791-5-7-6">
   <circle cx="135" cy="104" r="22.677" d="M 157.67717,103.99991 A 22.677166,22.677166 0 0 1 135,126.67707 22.677166,22.677166 0 0 1 112.32283,103.99991 22.677166,22.677166 0 0 1 135,81.322742 22.677166,22.677166 0 0 1 157.67717,103.99991 Z" display="none"/>
   <path class="powerclip" d="m103.54 72.543h62.913v62.913h-62.913zm54.134 31.457a22.677 22.677 0 0 0-22.677-22.677 22.677 22.677 0 0 0-22.677 22.677 22.677 22.677 0 0 0 22.677 22.677 22.677 22.677 0 0 0 22.677-22.677z"/>
  </clipPath>
 </defs>
 <path d="m12 19c3.8661 0 7-3.1339 7-7s-3.134-7-7-7c-3.8661 0-7 3.134-7 7 0 3.8661 3.134 7 7 7" fill="#3fcd17" fill-rule="evenodd" stroke-width="2.9396"/>
 <g transform="matrix(1.2857 0 0 1.2857 3.6896 -1327.8)">
  <path transform="matrix(.20579 0 0 .20579 -21.318 1020.7)" d="m161.46 104a26.457 26.457 0 0 1-26.457 26.457 26.457 26.457 0 0 1-26.457-26.457 26.457 26.457 0 0 1 26.457-26.457 26.457 26.457 0 0 1 26.457 26.457z" clip-path="url(#clipath_lpe_path-effect1791-5-7-6)" enable-background="new" fill="#fff" opacity=".15"/>
 </g>
 <path d="m12.025 7.4141v3.5859c0 0.41552 0.58448 1 1 1h3.5859zm-4.6367 4.5859 4.5859 4.5859v-3.5859c0-0.41552-0.58448-1-1-1z" opacity=".5" stroke-width="3.7795"/>
</svg>
