<?xml version="1.0" encoding="UTF-8"?>
<svg width="16" height="16" version="1.1" xmlns="http://www.w3.org/2000/svg">
 <defs>
  <clipPath id="clipath_lpe_path-effect1791-5-7-6">
   <circle cx="135" cy="104" r="22.677" display="none"/>
   <path class="powerclip" d="m103.54 72.543h62.913v62.913h-62.913zm54.134 31.457a22.677 22.677 0 0 0-22.677-22.677 22.677 22.677 0 0 0-22.677 22.677 22.677 22.677 0 0 0 22.677 22.677 22.677 22.677 0 0 0 22.677-22.677z"/>
  </clipPath>
 </defs>
 <path d="m8 15c3.8659 0 6.9999-3.134 6.9999-7s-3.134-7-6.9999-7c-3.866 0-7.0001 3.134-7.0001 7s3.134 7 7.0001 7" fill="#000" opacity=".24"/>
 <g id="titlebutton-minimize-backdrop" transform="translate(-253,268.64)">
  <rect x="253" y="-268.64" width="16" height="16" ry="1.6931e-5" opacity="0" stroke-width=".47432" style="paint-order:markers stroke fill"/>
 </g>
 <g id="menu_focused_prelight" transform="matrix(3.7795 0 0 3.7795 -384 -278.52)">
  <rect x="101.6" y="73.692" width="4.2333" height="4.2333" ry="4.4796e-6" opacity="0" stroke-width=".1255" style="paint-order:markers stroke fill"/>
  <circle transform="scale(1,-1)" cx="103.72" cy="-75.808" r=".66146" fill-opacity=".96838" opacity=".3"/>
 </g>
 <path transform="matrix(.26458 0 0 .26458 -27.72 -19.517)" d="m161.46 104a26.457 26.457 0 0 1-26.457 26.457 26.457 26.457 0 0 1-26.457-26.457 26.457 26.457 0 0 1 26.457-26.457 26.457 26.457 0 0 1 26.457 26.457z" clip-path="url(#clipath_lpe_path-effect1791-5-7-6)" enable-background="new" fill="#000" opacity=".04"/>
</svg>
