<svg width="24" height="24" version="1.1" viewBox="0 0 6.35 6.35" xmlns="http://www.w3.org/2000/svg">
 <defs>
  <clipPath id="clipPath9157">
   <path d="m5.2916 294.09a2.3812 2.3812 0 0 1-2.3812 2.3812 2.3812 2.3812 0 0 1-2.3812-2.3812 2.3812 2.3812 0 0 1 2.3812-2.3812 2.3812 2.3812 0 0 1 2.3812 2.3812z" display="none" fill="#373737" stroke-width=".59511"/>
   <path class="powerclip" d="m-4.7354 286.44h15.292v15.292h-15.292zm10.027 7.6458a2.3812 2.3812 0 0 0-2.3812-2.3812 2.3812 2.3812 0 0 0-2.3812 2.3812 2.3812 2.3812 0 0 0 2.3812 2.3812 2.3812 2.3812 0 0 0 2.3812-2.3812z"/>
  </clipPath>
 </defs>
 <g fill="#000" opacity="0.4">
  <g transform="translate(.26456 -290.92)" opacity=".1">
   <path d="m5.5562 294.09a2.6458 2.6458 0 0 1-2.6458 2.6458 2.6458 2.6458 0 0 1-2.6458-2.6458 2.6458 2.6458 0 0 1 2.6458-2.6458 2.6458 2.6458 0 0 1 2.6458 2.6458z" fill="#000" stroke-width=".66123"/>
  </g>
  <path transform="translate(.26456 -290.92)" d="m5.5562 294.09a2.6458 2.6458 0 0 1-2.6458 2.6458 2.6458 2.6458 0 0 1-2.6458-2.6458 2.6458 2.6458 0 0 1 2.6458-2.6458 2.6458 2.6458 0 0 1 2.6458 2.6458z" clip-path="url(#clipPath9157)" opacity=".05" stroke-width=".66123"/>
  <path d="m2.3037 2.1167-0.18707 0.18707 0.87023 0.86971-0.87023 0.87023 0.18707 0.18707 0.87023-0.87023 0.86971 0.87023 0.18707-0.18707-0.86971-0.87023 0.86971-0.86971-0.18707-0.18707-0.86971 0.86971z" stroke-width=".30022"/>
 </g>
</svg>
