<svg width="24" height="24" version="1.1" viewBox="0 0 6.35 6.35" xmlns="http://www.w3.org/2000/svg">
 <defs>
  <clipPath id="clipPath9157">
   <path d="m5.2916 294.09a2.3812 2.3812 0 0 1-2.3812 2.3812 2.3812 2.3812 0 0 1-2.3812-2.3812 2.3812 2.3812 0 0 1 2.3812-2.3812 2.3812 2.3812 0 0 1 2.3812 2.3812z" display="none" fill="#373737" stroke-width=".59511"/>
   <path class="powerclip" d="m-4.7354 286.44h15.292v15.292h-15.292zm10.027 7.6458a2.3812 2.3812 0 0 0-2.3812-2.3812 2.3812 2.3812 0 0 0-2.3812 2.3812 2.3812 2.3812 0 0 0 2.3812 2.3812 2.3812 2.3812 0 0 0 2.3812-2.3812z"/>
  </clipPath>
 </defs>
 <g fill="#000" opacity=".8">
  <g transform="translate(.26456 -290.92)" opacity=".1">
   <path d="m5.5562 294.09a2.6458 2.6458 0 0 1-2.6458 2.6458 2.6458 2.6458 0 0 1-2.6458-2.6458 2.6458 2.6458 0 0 1 2.6458-2.6458 2.6458 2.6458 0 0 1 2.6458 2.6458z" fill="#000" stroke-width=".66123"/>
  </g>
  <path transform="translate(.26456 -290.92)" d="m5.5562 294.09a2.6458 2.6458 0 0 1-2.6458 2.6458 2.6458 2.6458 0 0 1-2.6458-2.6458 2.6458 2.6458 0 0 1 2.6458-2.6458 2.6458 2.6458 0 0 1 2.6458 2.6458z" clip-path="url(#clipPath9157)" opacity=".05" stroke-width=".66123"/>
  <g transform="translate(0 -290.92)">
   <g fill="#000">
    <path transform="matrix(0 -1 .6 0 -123.1 88.367)" d="M-206.78 208.69h.265v2.646h-.265z" stroke-width=".19721"/>
    <path transform="matrix(-1 0 0 -.40081 -203.08 378.53)" d="M-206.78 208.68h.265v2.646h-.265z" stroke-width=".19721"/>
    <path transform="matrix(-1 0 0 -.4 -204.4 378.36)" d="M-206.78 208.69h.265v2.646h-.265z" stroke-width=".19721"/>
    <path transform="matrix(0 -1 .6 0 -123.09 87.038)" d="m-206.79 208.67h0.265v2.646h-0.265z" stroke-width=".19721"/>
   </g>
   <path transform="matrix(-1 0 0 -.5 -202.55 398.96)" d="M-206.78 208.68h.265v2.646h-.265z" opacity="0.5" stroke-width=".19721"/>
   <path transform="matrix(0 -1 .6 0 -122.56 86.51)" d="m-206.79 208.67h0.265v2.646h-0.265z" opacity="0.5" stroke-width=".19721"/>
  </g>
 </g>
</svg>
